<svg width="763" height="521" viewBox="0 0 763 521" fill="none" xmlns="http://www.w3.org/2000/svg">
<path fill-rule="evenodd" clip-rule="evenodd" d="M634.52 474.395C827.485 321.271 602.121 154.882 506.875 256.938C602.893 -72.1138 4.2051 -97.2408 139.913 252.109C139.913 252.109 -89.8492 259.838 50.5581 462.796L634.52 474.395ZM655.255 467.034C655.255 467.034 726.519 427.762 720.68 338.368C720.68 338.368 720.471 336.072 722.042 335.967C723.6 335.862 748.406 408.028 695.887 461.497L655.255 467.034Z" fill="#F0EEF6"/>
<path fill-rule="evenodd" clip-rule="evenodd" d="M9.75609 462.6H749.453C754.297 462.6 758.275 466.558 758.275 471.408C758.275 476.258 754.31 480.217 749.453 480.217H719.693C717.002 480.217 714.797 482.419 714.797 485.106C714.797 487.793 717.002 489.995 719.693 489.995H730.589C733.963 489.995 736.72 492.748 736.72 496.116C736.72 499.485 733.963 502.238 730.589 502.238H29.6046C26.2308 502.238 23.4741 499.485 23.4741 496.116C23.4741 492.748 26.2308 489.995 29.6046 489.995H38.1767C40.8678 489.995 43.0732 487.793 43.0732 485.106C43.0732 482.419 40.8678 480.217 38.1767 480.217H9.75609C4.89899 480.217 0.93454 476.245 0.93454 471.408C0.93454 466.571 4.91211 462.6 9.75609 462.6ZM14.3506 502.251C17.58 502.251 20.2317 499.603 20.2317 496.378V495.893C20.2317 492.669 17.58 490.021 14.3506 490.021C11.1213 490.021 8.46961 492.669 8.46961 495.893V496.378C8.46961 499.603 11.1213 502.251 14.3506 502.251Z" fill="#01051A"/>
<path fill-rule="evenodd" clip-rule="evenodd" d="M240.304 86.9143C240.304 86.3763 240.736 85.9302 241.286 85.9302C241.823 85.9302 242.268 86.3632 242.268 86.9143V91.323C242.268 91.8609 241.836 92.307 241.286 92.307C240.749 92.307 240.304 91.874 240.304 91.323V86.9143ZM233.654 90.4963C233.275 90.1158 233.275 89.4991 233.654 89.1055C234.034 88.725 234.649 88.725 235.029 89.1055L238.131 92.2152C238.511 92.5957 238.511 93.2124 238.131 93.606C237.752 93.9865 237.136 93.9865 236.757 93.606L233.654 90.4963ZM231.468 97.7392C230.931 97.7392 230.486 97.3062 230.486 96.7551C230.486 96.2171 230.918 95.771 231.468 95.771H235.867C236.403 95.771 236.848 96.204 236.848 96.7551C236.848 97.2931 236.416 97.7392 235.867 97.7392H231.468ZM235.029 104.405C234.649 104.785 234.034 104.785 233.654 104.405C233.275 104.024 233.275 103.407 233.654 103.014L236.757 99.9042C237.136 99.5237 237.752 99.5237 238.131 99.9042C238.511 100.285 238.511 100.901 238.131 101.295L235.029 104.405ZM242.255 106.596C242.255 107.134 241.823 107.58 241.273 107.58C240.736 107.58 240.291 107.147 240.291 106.596V102.2C240.291 101.662 240.723 101.216 241.273 101.216C241.81 101.216 242.255 101.649 242.255 102.2V106.596ZM248.918 103.027C249.297 103.408 249.297 104.024 248.918 104.418C248.538 104.798 247.923 104.798 247.543 104.418L244.441 101.308C244.061 100.928 244.061 100.311 244.441 99.9173C244.82 99.5368 245.436 99.5368 245.828 99.9173L248.918 103.027ZM251.104 95.7841C251.64 95.7841 252.086 96.2171 252.086 96.7682C252.086 97.3062 251.654 97.7523 251.104 97.7523H246.705C246.169 97.7523 245.724 97.3193 245.724 96.7682C245.724 96.2302 246.156 95.7841 246.705 95.7841H251.104ZM247.53 89.1055C247.91 88.725 248.525 88.725 248.905 89.1055C249.284 89.486 249.284 90.1027 248.905 90.4963L245.802 93.606C245.423 93.9865 244.807 93.9865 244.415 93.606C244.035 93.2255 244.035 92.6088 244.415 92.2152L247.53 89.1055Z" fill="white"/>
<path fill-rule="evenodd" clip-rule="evenodd" d="M715.693 119.691C715.693 119.153 716.125 118.707 716.675 118.707C717.212 118.707 717.657 119.14 717.657 119.691V124.1C717.657 124.638 717.225 125.084 716.675 125.084C716.138 125.084 715.693 124.651 715.693 124.1V119.691ZM709.03 123.26C708.65 122.879 708.65 122.263 709.03 121.882C709.41 121.502 710.025 121.502 710.404 121.882L713.507 124.992C713.887 125.372 713.887 125.989 713.507 126.383C713.127 126.763 712.512 126.763 712.132 126.383L709.03 123.26ZM706.844 130.516C706.307 130.516 705.862 130.083 705.862 129.532C705.862 128.994 706.294 128.548 706.844 128.548H711.242C711.779 128.548 712.224 128.981 712.224 129.532C712.224 130.07 711.792 130.516 711.242 130.516H706.844ZM710.418 137.181C710.038 137.562 709.423 137.562 709.043 137.181C708.664 136.801 708.664 136.184 709.043 135.804L712.146 132.694C712.525 132.314 713.14 132.314 713.52 132.694C713.9 133.075 713.9 133.691 713.52 134.085L710.418 137.181ZM717.643 139.373C717.643 139.911 717.212 140.357 716.662 140.357C716.125 140.357 715.68 139.924 715.68 139.373V134.964C715.68 134.426 716.112 133.98 716.662 133.98C717.198 133.98 717.643 134.413 717.643 134.964V139.373ZM724.293 135.804C724.673 136.184 724.673 136.801 724.293 137.181C723.914 137.562 723.298 137.562 722.919 137.181L719.816 134.072C719.437 133.691 719.437 133.075 719.816 132.681C720.196 132.3 720.811 132.3 721.191 132.681L724.293 135.804ZM726.479 128.548C727.016 128.548 727.461 128.981 727.461 129.532C727.461 130.07 727.029 130.516 726.479 130.516H722.094C721.557 130.516 721.112 130.083 721.112 129.532C721.112 128.994 721.544 128.548 722.094 128.548H726.479ZM722.919 121.882C723.298 121.502 723.914 121.502 724.293 121.882C724.673 122.263 724.673 122.879 724.293 123.26L721.191 126.37C720.811 126.75 720.196 126.75 719.816 126.37C719.437 125.989 719.437 125.372 719.816 124.979L722.919 121.882Z" fill="#C8BFDE"/>
<path fill-rule="evenodd" clip-rule="evenodd" d="M44.5365 59.5436C44.5365 59.0056 44.9685 58.5595 45.5183 58.5595C46.055 58.5595 46.5001 58.9925 46.5001 59.5436V63.9523C46.5001 64.4903 46.0681 64.9364 45.5183 64.9364C44.9816 64.9364 44.5365 64.5034 44.5365 63.9523V59.5436ZM37.8866 63.1125C37.507 62.732 37.507 62.1153 37.8866 61.7348C38.2662 61.3543 38.8815 61.3543 39.2611 61.7348L42.3635 64.8445C42.7431 65.225 42.7431 65.8417 42.3635 66.2223C41.9839 66.6028 41.3687 66.6028 40.9759 66.2223L37.8866 63.1125ZM35.7005 70.3554C35.1638 70.3554 34.7188 69.9224 34.7188 69.3713C34.7188 68.8334 35.1507 68.3872 35.7005 68.3872H40.0989C40.6356 68.3872 41.0807 68.8202 41.0807 69.3713C41.0807 69.9093 40.6487 70.3554 40.0989 70.3554H35.7005ZM39.2611 77.0209C38.8815 77.4015 38.2662 77.4015 37.8866 77.0209C37.507 76.6404 37.507 76.0237 37.8866 75.6432L40.989 72.5335C41.3687 72.153 41.9839 72.153 42.3766 72.5335C42.7562 72.914 42.7562 73.5307 42.3766 73.9112L39.2611 77.0209ZM46.5001 79.2122C46.5001 79.7501 46.0681 80.1963 45.5183 80.1963C44.9816 80.1963 44.5365 79.7633 44.5365 79.2122V74.8035C44.5365 74.2655 44.9685 73.8194 45.5183 73.8194C46.055 73.8194 46.5001 74.2524 46.5001 74.8035V79.2122ZM53.15 75.6432C53.5296 76.0237 53.5296 76.6404 53.15 77.0209C52.7704 77.4015 52.1551 77.4015 51.7755 77.0209L48.6731 73.9112C48.2935 73.5307 48.2935 72.914 48.6731 72.5335C49.0527 72.153 49.6679 72.153 50.0607 72.5335L53.15 75.6432ZM55.3361 68.4004C55.8728 68.4004 56.3179 68.8334 56.3179 69.3844C56.3179 69.9224 55.8859 70.3685 55.3361 70.3685H50.9508C50.4141 70.3685 49.969 69.9355 49.969 69.3844C49.969 68.8465 50.401 68.4004 50.9508 68.4004H55.3361ZM51.7624 61.7217C52.142 61.3412 52.7573 61.3412 53.1369 61.7217C53.5165 62.1022 53.5165 62.7189 53.1369 63.0994L50.0345 66.2091C49.6549 66.5896 49.0396 66.5896 48.6469 66.2091C48.2673 65.8286 48.2673 65.2119 48.6469 64.8314L51.7624 61.7217Z" fill="#C8BFDE"/>
<path fill-rule="evenodd" clip-rule="evenodd" d="M544.366 137.352H549.89C550.898 137.352 551.736 138.179 551.736 139.202V144.739C551.736 145.749 550.911 146.589 549.89 146.589H544.366C543.358 146.589 542.52 145.763 542.52 144.739V139.202C542.52 138.179 543.358 137.352 544.366 137.352Z" fill="#DCD7EB"/>
<path fill-rule="evenodd" clip-rule="evenodd" d="M563.242 137.352H568.767C569.775 137.352 570.612 138.179 570.612 139.202V144.739C570.612 145.749 569.788 146.589 568.767 146.589H563.242C562.234 146.589 561.397 145.763 561.397 144.739V139.202C561.397 138.179 562.221 137.352 563.242 137.352Z" fill="#DCD7EB"/>
<path fill-rule="evenodd" clip-rule="evenodd" d="M582.106 137.352H587.63C588.638 137.352 589.476 138.179 589.476 139.202V144.739C589.476 145.749 588.651 146.589 587.63 146.589H582.106C581.098 146.589 580.26 145.763 580.26 144.739V139.202C580.273 138.179 581.098 137.352 582.106 137.352Z" fill="#DCD7EB"/>
<path fill-rule="evenodd" clip-rule="evenodd" d="M600.982 137.352H606.506C607.514 137.352 608.352 138.179 608.352 139.202V144.739C608.352 145.749 607.527 146.589 606.506 146.589H600.982C599.974 146.589 599.136 145.763 599.136 144.739V139.202C599.149 138.179 599.974 137.352 600.982 137.352Z" fill="#DCD7EB"/>
<path fill-rule="evenodd" clip-rule="evenodd" d="M565.788 67.4558C568.262 67.4558 570.632 67.9019 572.831 68.7154C573.826 67.6263 575.253 66.9309 576.85 66.9309C577.596 66.9309 578.303 67.0753 578.944 67.3508C579.298 62.6797 583.198 58.9926 587.95 58.9926C590.019 58.9926 591.917 59.6881 593.435 60.8558C594.417 59.5175 595.988 58.6384 597.768 58.6384C598.069 58.6384 598.357 58.6646 598.645 58.704C598.043 57.2869 597.703 55.7386 597.703 54.1116C597.703 47.656 602.926 42.4206 609.366 42.4206C610.57 42.4206 611.722 42.6043 612.809 42.9455C613.647 41.1348 615.479 39.8883 617.6 39.8883H617.757C617.731 39.4684 617.718 39.0485 617.718 38.6155C617.718 27.0164 627.104 17.6086 638.676 17.6086C650.247 17.6086 659.633 27.0164 659.633 38.6155C659.633 38.773 659.633 38.9435 659.633 39.101C660.641 38.8386 661.701 38.7074 662.788 38.7074C664.961 38.7074 667.003 39.2453 668.783 40.2032C671.847 36.0307 676.769 33.3146 682.332 33.3146C691.6 33.3146 699.114 40.8461 699.114 50.1359C699.114 51.9597 698.826 53.7179 698.289 55.3712C698.459 55.3581 698.629 55.3581 698.8 55.3581C703.368 55.3581 707.06 59.0714 707.06 63.6375C707.06 64.1755 707.007 64.7003 706.916 65.2121C706.968 65.2121 707.034 65.2121 707.086 65.2121C709.665 65.2121 711.772 67.259 711.851 69.8307C712.571 69.6995 713.304 69.6208 714.063 69.6208C717.048 69.6208 719.836 70.6573 721.839 72.5599C727.206 77.6509 721.341 78.9761 715.699 78.9761H708.329H702.543H584.023H574.768H559.57C553.68 78.9761 545.276 79.9471 551.114 73.767C554.805 69.8832 560.015 67.4558 565.788 67.4558Z" fill="#F0EEF6"/>
<path fill-rule="evenodd" clip-rule="evenodd" d="M186.534 125.017C179.36 125.017 172.475 126.316 166.126 128.678C163.259 125.502 159.109 123.508 154.489 123.508C152.342 123.508 150.287 123.941 148.428 124.728C147.394 111.174 136.097 100.493 122.312 100.493C121.265 100.493 120.231 100.559 119.21 100.677C118.844 118.968 118.215 142.993 117.233 158.41H133.649H160.471H204.533C221.603 158.41 245.99 161.218 229.051 143.321C218.37 132.05 203.263 125.017 186.534 125.017Z" fill="white"/>
<path fill-rule="evenodd" clip-rule="evenodd" d="M587.407 284.4C590.143 284.4 592.761 284.899 595.196 285.804C596.296 284.597 597.866 283.836 599.634 283.836C600.458 283.836 601.231 284.007 601.951 284.296C602.343 279.126 606.65 275.058 611.912 275.058C614.19 275.058 616.298 275.832 617.973 277.118C619.047 275.636 620.801 274.665 622.764 274.665C623.092 274.665 623.419 274.691 623.733 274.743C623.065 273.182 622.699 271.463 622.699 269.665C622.699 262.528 628.472 256.741 635.593 256.741C636.915 256.741 638.198 256.938 639.402 257.318C640.332 255.324 642.361 253.933 644.704 253.933H644.874C644.848 253.474 644.835 253.002 644.835 252.529C644.835 239.71 655.202 229.318 667.992 229.318C680.781 229.318 691.149 239.71 691.149 252.529C691.149 252.713 691.149 252.884 691.135 253.067C692.261 252.779 693.426 252.634 694.631 252.634C697.026 252.634 699.278 253.225 701.267 254.274C704.645 249.656 710.09 246.664 716.243 246.664C726.493 246.664 734.792 254.996 734.792 265.257C734.792 267.277 734.465 269.219 733.875 271.043C734.059 271.03 734.255 271.03 734.438 271.03C739.491 271.03 743.575 275.137 743.575 280.189C743.575 280.779 743.523 281.369 743.405 281.934C743.471 281.934 743.536 281.934 743.602 281.934C746.455 281.934 748.772 284.204 748.864 287.038C749.649 286.88 750.474 286.802 751.312 286.802C754.611 286.802 757.687 287.956 759.912 290.056C765.842 295.685 759.362 297.141 753.118 297.141H744.976H738.588H607.58H597.356H580.561C574.055 297.141 564.748 298.217 571.214 291.394C575.272 287.077 581.032 284.4 587.407 284.4Z" fill="white"/>
<path fill-rule="evenodd" clip-rule="evenodd" d="M25.2544 102.961H30.7785C31.7865 102.961 32.6243 103.788 32.6243 104.812V110.349C32.6243 111.359 31.7996 112.199 30.7785 112.199H25.2544C24.2465 112.199 23.4218 111.372 23.4218 110.349V104.812C23.4087 103.788 24.2334 102.961 25.2544 102.961Z" fill="#DCD7EB"/>
<path fill-rule="evenodd" clip-rule="evenodd" d="M44.1307 102.961H49.6549C50.6628 102.961 51.5006 103.788 51.5006 104.812V110.349C51.5006 111.359 50.6759 112.199 49.6549 112.199H44.1307C43.1228 112.199 42.285 111.372 42.285 110.349V104.812C42.285 103.788 43.1097 102.961 44.1307 102.961Z" fill="#DCD7EB"/>
<path fill-rule="evenodd" clip-rule="evenodd" d="M62.9939 102.961H68.5181C69.526 102.961 70.3638 103.788 70.3638 104.812V110.349C70.3638 111.359 69.5391 112.199 68.5181 112.199H62.9939C61.986 112.199 61.1482 111.372 61.1482 110.349V104.812C61.1613 103.788 61.986 102.961 62.9939 102.961Z" fill="#DCD7EB"/>
<path fill-rule="evenodd" clip-rule="evenodd" d="M81.8703 102.961H87.3944C88.4024 102.961 89.227 103.788 89.227 104.812V110.349C89.227 111.359 88.4024 112.199 87.3944 112.199H81.8703C80.8623 112.199 80.0245 111.372 80.0245 110.349V104.812C80.0245 103.788 80.8623 102.961 81.8703 102.961Z" fill="#DCD7EB"/>
<path fill-rule="evenodd" clip-rule="evenodd" d="M245.16 459.292H479.988L509.637 513.417C330.744 480.141 397.963 477.097 220.393 515.083C229.661 492.764 238.025 474.25 245.16 459.292Z" fill="#313254"/>
<path fill-rule="evenodd" clip-rule="evenodd" d="M526.328 338.407C545.453 326.611 555.781 318.896 556.671 318.332C558.753 317.02 558.242 314.317 556.174 314.277C554.105 314.238 548.346 316.35 547.6 316.757C546.853 317.177 546.88 316.429 546.88 316.429C549.864 306.706 541.355 303.452 539.065 303.085C536.774 302.704 534.941 303.584 534.836 304.83C534.732 306.077 536.447 306.759 536.447 306.759C541.787 307.861 542.638 312.755 540.243 315.721C537.847 318.673 533.135 319.854 529.98 316.416C526.812 312.978 529.77 309.108 530.935 308.005C532.101 306.903 533.279 305.722 532.258 304.436C531.223 303.151 529.927 304.108 529.927 304.108C518.264 310.866 522.885 320.379 522.885 320.379C522.885 320.379 523.723 323.646 520.934 325.181C520.659 325.338 519.94 325.653 518.892 326.099L526.328 338.407Z" fill="#F4AD85"/>
<path fill-rule="evenodd" clip-rule="evenodd" d="M381.09 216.157C368.484 210.699 356.297 210.699 343.704 216.157L345.89 221.996H378.917L381.09 216.157Z" fill="#ACB5DB"/>
<path fill-rule="evenodd" clip-rule="evenodd" d="M378.184 184.011L377.726 194.652C377.726 194.652 377.726 216.446 377.726 219.766C377.726 221.366 379.218 223.676 381.836 225.683C379.532 228.176 375.265 232.624 370.893 236.049H354.53C350.17 232.611 345.89 228.176 343.586 225.683C346.217 223.676 347.696 221.366 347.696 219.766C347.696 216.459 347.696 194.652 347.696 194.652L347.238 184.011C347.238 184.011 354.844 185.375 362.698 187.304C370.578 185.388 378.184 184.011 378.184 184.011Z" fill="#E8685B"/>
<path fill-rule="evenodd" clip-rule="evenodd" d="M367.489 237.991L364.491 238.424H362.737H360.983L357.985 237.991L340.3 221.209L310.31 235.892L310.323 235.905C310.323 235.905 305.074 261.661 305.074 294.176L305.912 308.333C306.161 312.178 306.409 315.878 306.658 319.447L306.815 326.677C306.815 326.677 304.145 383.36 304.773 385.8C305.401 388.241 310.494 394.041 310.494 394.041C310.297 395.576 310.075 397.216 309.839 398.935C319.015 402.792 336.059 407.739 362.75 407.516C389.428 407.739 406.485 402.792 415.662 398.935C415.426 397.216 415.203 395.576 415.007 394.041C415.007 394.041 420.099 388.241 420.728 385.8C421.356 383.36 418.699 326.677 418.699 326.677L418.843 319.447C419.091 315.878 419.34 312.178 419.589 308.333L420.426 294.176C420.426 261.675 415.177 235.905 415.177 235.905L415.19 235.892L385.187 221.209L367.489 237.991Z" fill="#333258"/>
<path fill-rule="evenodd" clip-rule="evenodd" d="M305.061 293.1C305.061 293.454 305.061 293.821 305.061 294.176L305.899 308.333C306.148 312.178 306.396 315.878 306.645 319.447L306.802 326.677L306.763 327.516C307.273 316.849 309.054 285.319 308.203 286.775C308.006 287.13 306.841 289.491 305.061 293.1ZM304.773 376.563C308.582 382.087 318.597 389.855 344.947 391.43C386.706 393.936 401.956 378.4 404.208 364.111C406.459 349.822 424.144 259.09 382.412 230.394C380.972 229.41 379.676 228.452 378.511 227.533L385.174 221.222L415.177 235.905L415.164 235.918C415.164 235.918 415.374 236.954 415.714 238.857C415.282 246.808 415.622 259.628 419.837 275.216C420.191 281.146 420.413 287.523 420.413 294.189L419.576 308.346C419.327 312.191 419.078 315.891 418.829 319.46L418.686 326.69C418.686 326.69 421.356 383.373 420.714 385.814C420.086 388.254 414.994 394.054 414.994 394.054C415.19 395.589 415.413 397.229 415.649 398.948C406.472 402.805 389.429 407.752 362.737 407.529C336.059 407.752 319.002 402.805 309.826 398.948C310.062 397.229 310.284 395.589 310.481 394.054C310.481 394.054 305.388 388.254 304.76 385.814C304.603 385.236 304.642 381.68 304.773 376.563Z" fill="#262649"/>
<path fill-rule="evenodd" clip-rule="evenodd" d="M366.795 235.209L364.086 235.603H360.721L358.012 235.209L347.278 225.027L345.667 225.526L342.225 230.066C342.225 230.066 350.053 248.265 350.511 248.882C350.969 249.498 351.794 249.8 352.959 248.37C354.137 246.94 357.841 242.255 357.841 242.255C357.841 242.255 358.915 241.127 359.412 242.4C359.91 243.673 365.447 240.169 365.447 240.169L365.84 241.403C365.84 241.403 366.677 240.379 367.515 241.704C368.34 243.03 372.437 248.764 372.725 249.013C373 249.275 374.257 250.115 375.121 248.317C375.919 246.677 385.227 225.723 386.863 222.062L382.766 220.054L366.795 235.209Z" fill="#1F1F40"/>
<path fill-rule="evenodd" clip-rule="evenodd" d="M366.795 235.209L364.086 235.603H360.721L358.012 235.209L356.938 234.199L354.687 238.109C354.687 238.109 359.726 239.749 359.726 244.184C359.726 248.619 359.726 403.855 359.726 403.855L362.397 410.521L365.08 403.855C365.08 403.855 365.08 248.632 365.08 244.184C365.08 239.749 370.12 238.109 370.12 238.109L367.869 234.199L366.795 235.209Z" fill="#1F1F40"/>
<path fill-rule="evenodd" clip-rule="evenodd" d="M359.098 233.897L360.721 233.622C360.721 233.622 361.049 233.963 361.088 234.553C361.14 235.144 361.166 236.863 361.166 236.863C360.577 237.072 357.383 237.729 357.488 237.269C357.514 237.177 359.098 233.897 359.098 233.897Z" fill="#1F1F40"/>
<path fill-rule="evenodd" clip-rule="evenodd" d="M365.709 233.897L364.086 233.622C364.086 233.622 363.771 233.963 363.719 234.553C363.667 235.144 363.64 236.863 363.64 236.863C364.23 237.335 367.424 237.729 367.319 237.269C367.28 237.177 365.709 233.897 365.709 233.897Z" fill="#1F1F40"/>
<path fill-rule="evenodd" clip-rule="evenodd" d="M381.09 216.157C381.273 216.315 383.276 219.858 384.323 221.55C384.323 221.55 385.266 222.954 384.572 225.29C383.878 227.638 374.754 246.913 374.754 246.913C374.754 246.913 374.1 247.937 373.066 246.94C372.018 245.942 364.073 233.635 364.073 233.635L379.139 217.706C379.859 216.8 380.907 216 381.09 216.157Z" fill="white"/>
<path fill-rule="evenodd" clip-rule="evenodd" d="M343.704 216.157C343.573 216.223 341.518 219.858 340.471 221.55C340.471 221.55 339.528 222.954 340.222 225.29C340.916 227.638 350.04 246.913 350.04 246.913C350.04 246.913 350.694 247.937 351.728 246.94C352.775 245.942 360.721 233.635 360.721 233.635L345.654 217.706C344.646 216.512 343.835 216.092 343.704 216.157Z" fill="white"/>
<path fill-rule="evenodd" clip-rule="evenodd" d="M317.065 290.804H346.793C347.186 290.804 347.5 291.118 347.5 291.512V293.415C347.5 293.808 347.186 294.123 346.793 294.123H317.065C316.672 294.123 316.358 293.808 316.358 293.415V291.512C316.358 291.118 316.672 290.804 317.065 290.804Z" fill="white"/>
<path fill-rule="evenodd" clip-rule="evenodd" d="M483.286 380.382C483.286 380.382 387.399 399.84 361.035 399.84C334.685 399.84 238.785 380.382 238.785 380.382L243.536 399.25L361.035 433.443L478.535 399.25L483.286 380.382Z" fill="#525475"/>
<path fill-rule="evenodd" clip-rule="evenodd" d="M272.44 457.652L277.611 456.983C277.611 456.983 284.431 455.106 286.577 454.424C288.724 453.742 294.667 455.015 296.618 464.974C298.568 474.946 293.398 476.992 287.651 478.462C281.904 479.932 267.178 484.327 267.178 484.327C267.178 484.327 259.873 468.595 272.44 457.652Z" fill="#F09373"/>
<path fill-rule="evenodd" clip-rule="evenodd" d="M267.178 480.758C267.178 480.758 268.395 480.509 271.131 480.509C273.854 480.509 274.011 482.267 274.299 483.737C274.587 485.206 275.804 489.011 271.275 490.822C266.746 492.633 239.753 502.251 239.753 502.251L234.779 499.666C234.779 499.653 249.584 485.98 267.178 480.758Z" fill="#3B3B61"/>
<path fill-rule="evenodd" clip-rule="evenodd" d="M261.405 442.851C261.405 442.851 268.199 445.685 276.485 452.522C276.485 452.522 278.579 454.568 277.414 457.547C276.249 460.525 264.69 465.512 268.788 482.11C268.788 482.11 269.77 484.747 266.942 485.731C264.114 486.702 244.715 494.43 242.28 496.084C239.845 497.75 239.937 499.692 239.74 502.238C239.544 504.783 235.643 504.193 228.626 511.619C221.61 519.046 214.476 522.956 208.912 519.098C208.912 519.098 206.399 518.167 205.627 515.136C204.841 512.105 207.184 502.343 207.184 502.343L237.305 458.479L261.405 442.851Z" fill="#1F1F40"/>
<path fill-rule="evenodd" clip-rule="evenodd" d="M261.405 442.851C261.405 442.851 248.144 458.977 244.636 463.556C241.128 468.149 235.577 469.421 230.21 475.182C224.856 480.942 212.761 496.674 208.965 504.875C205.168 513.075 207.302 517.773 208.912 519.085C208.912 519.085 205.967 519.912 205.352 519.702C204.736 519.479 202.747 514.768 202.446 510.372C202.158 505.977 208.978 491.124 215.798 481.939C222.618 472.754 230.511 465.433 237.528 456.34C244.544 447.26 249.322 439.978 251.469 438.023C253.616 436.068 254.637 436.172 255.658 436.264C256.679 436.356 260.868 440.463 261.365 441.145C261.876 441.854 261.405 442.851 261.405 442.851Z" fill="white"/>
<path fill-rule="evenodd" clip-rule="evenodd" d="M206.988 519.57C206.294 519.715 205.627 519.807 205.378 519.715C204.763 519.492 202.773 514.781 202.472 510.386C202.184 505.99 209.004 491.137 215.824 481.952C222.644 472.767 230.538 465.446 237.554 456.353C244.57 447.273 249.348 439.991 251.495 438.036C253.642 436.081 254.663 436.186 255.684 436.278C255.985 436.304 256.535 436.671 257.19 437.183C257.19 437.183 254.558 436.396 249.636 442.851C244.714 449.294 235.734 462.113 223.862 474.893C211.989 487.686 204.763 503.13 203.886 510.163C203.611 512.288 204.972 515.765 206.988 519.57Z" fill="#333258"/>
<path fill-rule="evenodd" clip-rule="evenodd" d="M281.014 453.65C281.014 453.65 466.583 385.853 475.93 382.337C485.289 378.82 498.537 378.033 502.241 389.566C505.946 401.087 508.472 427.67 473.783 437.432C439.08 447.207 290.753 480.614 285.687 481.388C280.621 482.162 278.972 460.394 279.404 456.484C279.417 456.484 279.797 454.372 281.014 453.65Z" fill="#626585"/>
<path fill-rule="evenodd" clip-rule="evenodd" d="M281.014 453.65C281.014 453.65 327.982 436.487 375.841 418.984C379.611 422.369 386.928 426.765 401.092 430.78C429.341 438.797 464.685 428.313 482.108 424.259C499.113 420.309 504.323 404.498 504.244 400.457C504.912 413.263 499.859 430.084 473.796 437.419C439.093 447.194 290.766 480.601 285.7 481.375C280.634 482.149 278.985 460.381 279.417 456.471C279.417 456.484 279.797 454.372 281.014 453.65Z" fill="#525475"/>
<path fill-rule="evenodd" clip-rule="evenodd" d="M449.644 457.652L444.474 456.983C444.474 456.983 437.653 455.106 435.507 454.424C433.36 453.742 427.417 455.015 425.466 464.974C423.516 474.946 428.687 476.992 434.433 478.462C440.18 479.932 454.894 484.327 454.894 484.327C454.894 484.327 462.224 468.595 449.644 457.652Z" fill="#F09373"/>
<path fill-rule="evenodd" clip-rule="evenodd" d="M454.906 480.758C454.906 480.758 453.689 480.509 450.953 480.509C448.23 480.509 448.073 482.267 447.785 483.737C447.497 485.206 446.28 489.011 450.809 490.822C455.338 492.633 482.331 502.251 482.331 502.251L487.305 499.666C487.318 499.653 472.5 485.98 454.906 480.758Z" fill="#3B3B61"/>
<path fill-rule="evenodd" clip-rule="evenodd" d="M460.679 442.851C460.679 442.851 453.885 445.685 445.599 452.522C445.599 452.522 443.505 454.568 444.67 457.547C445.835 460.525 457.394 465.512 453.296 482.11C453.296 482.11 452.328 484.747 455.155 485.731C457.983 486.702 477.37 494.43 479.817 496.084C482.252 497.75 482.161 499.692 482.357 502.238C482.553 504.783 486.454 504.193 493.471 511.619C500.487 519.046 507.621 522.956 513.185 519.098C513.185 519.098 515.698 518.167 516.471 515.136C517.256 512.105 514.913 502.343 514.913 502.343L484.805 458.479L460.679 442.851Z" fill="#1F1F40"/>
<path fill-rule="evenodd" clip-rule="evenodd" d="M460.679 442.851C460.679 442.851 473.94 458.977 477.448 463.556C480.956 468.149 486.507 469.421 491.874 475.182C497.228 480.942 509.323 496.674 513.119 504.875C516.916 513.075 514.782 517.773 513.172 519.085C513.172 519.085 516.117 519.912 516.732 519.702C517.348 519.479 519.337 514.768 519.638 510.372C519.926 505.977 513.106 491.124 506.286 481.939C499.466 472.754 491.573 465.433 484.556 456.34C477.54 447.26 472.762 439.978 470.615 438.023C468.468 436.068 467.447 436.172 466.426 436.264C465.405 436.356 461.216 440.463 460.719 441.145C460.221 441.854 460.679 442.851 460.679 442.851Z" fill="white"/>
<path fill-rule="evenodd" clip-rule="evenodd" d="M515.109 519.57C515.803 519.715 516.471 519.807 516.719 519.715C517.335 519.492 519.324 514.781 519.625 510.386C519.913 505.99 513.093 491.137 506.273 481.952C499.453 472.767 491.56 465.446 484.543 456.353C477.527 447.273 472.749 439.991 470.602 438.036C468.455 436.081 467.434 436.186 466.413 436.278C466.125 436.304 465.562 436.671 464.908 437.183C464.908 437.183 467.539 436.396 472.461 442.851C477.383 449.294 486.363 462.113 498.236 474.893C510.109 487.686 517.335 503.13 518.212 510.163C518.473 512.288 517.125 515.765 515.109 519.57Z" fill="#333258"/>
<path fill-rule="evenodd" clip-rule="evenodd" d="M441.07 453.65C441.07 453.65 255.501 385.853 246.154 382.337C236.795 378.82 223.547 378.033 219.843 389.566C216.138 401.087 213.599 427.67 248.301 437.432C282.991 447.207 431.331 480.614 436.397 481.388C441.463 482.162 443.112 460.394 442.68 456.484C442.68 456.484 442.301 454.372 441.07 453.65Z" fill="#717697"/>
<path fill-rule="evenodd" clip-rule="evenodd" d="M218.992 392.624C215.968 405.259 216.4 428.444 248.301 437.432C282.991 447.207 431.331 480.614 436.397 481.388C439.525 481.874 441.345 473.791 442.183 466.6C436.986 469.618 428.281 471.573 413.842 468.634C381.836 462.113 279.81 437.301 248.053 423.012C216.636 408.881 218.94 392.952 218.992 392.624Z" fill="#626585"/>
<path fill-rule="evenodd" clip-rule="evenodd" d="M324.919 163.332C324.657 163.371 324.409 163.41 324.147 163.463H324.134C319.46 164.447 315.913 168.554 315.821 173.54C315.717 179.339 320.311 184.129 326.097 184.234C331.883 184.339 336.661 179.733 336.779 173.934C336.844 170.561 335.313 167.53 332.891 165.562C333.153 168.659 332.669 172.503 328.715 172.884L328.833 166.835C328.872 164.394 326.595 163.266 324.919 163.332Z" fill="#E8685B"/>
<path fill-rule="evenodd" clip-rule="evenodd" d="M400.542 163.332C400.804 163.371 401.053 163.41 401.315 163.463H401.328C406.001 164.447 409.548 168.554 409.653 173.54C409.758 179.339 405.163 184.129 399.377 184.234C393.591 184.339 388.813 179.733 388.695 173.934C388.63 170.561 390.162 167.53 392.583 165.562C392.321 168.659 392.806 172.503 396.759 172.884L396.641 166.835C396.589 164.394 398.867 163.266 400.542 163.332Z" fill="#E8685B"/>
<path fill-rule="evenodd" clip-rule="evenodd" d="M362.737 110.86C343.01 110.86 326.857 127.039 326.857 146.825V179.536C326.857 199.31 342.997 215.501 362.737 215.501C382.464 215.501 398.605 199.323 398.605 179.536V146.825C398.605 127.052 382.464 110.86 362.737 110.86Z" fill="#F4AD85"/>
<path fill-rule="evenodd" clip-rule="evenodd" d="M364.806 215.436C383.577 214.347 398.605 198.614 398.605 179.536V146.825C398.605 132.038 389.573 119.258 376.77 113.747C363.405 119.455 331.831 142.417 331.831 142.417L334.959 146.93C334.959 146.93 336.583 141.603 346.466 141.603C356.336 141.603 366.599 141.603 372.162 141.603C377.726 141.603 383.472 143.611 383.472 149.935C383.472 156.259 386.221 162.846 392.099 162.846C392.099 162.846 392.099 175.757 392.099 184.273C392.086 192.789 383.904 213.14 364.806 215.436Z" fill="#F09373"/>
<path fill-rule="evenodd" clip-rule="evenodd" d="M383.067 181.308C380.462 181.255 378.315 183.341 378.262 185.953C378.21 188.564 380.291 190.715 382.883 190.768C385.488 190.82 387.635 188.734 387.688 186.123C387.74 183.525 385.672 181.36 383.067 181.308Z" fill="#E8685B"/>
<path fill-rule="evenodd" clip-rule="evenodd" d="M342.486 180.534C339.881 180.481 337.735 182.567 337.682 185.178C337.63 187.79 339.698 189.941 342.316 189.994C344.921 190.046 347.068 187.973 347.12 185.349C347.173 182.751 345.091 180.586 342.486 180.534Z" fill="#E8685B"/>
<path fill-rule="evenodd" clip-rule="evenodd" d="M340.51 163.778C339.881 164.093 339.109 163.83 338.808 163.214C338.494 162.584 338.756 161.81 339.371 161.508C342.748 159.763 347.264 159.566 350.576 161.547C351.178 161.902 351.375 162.702 351.008 163.292C350.655 163.896 349.856 164.093 349.254 163.725C346.584 162.125 343.22 162.479 340.51 163.778Z" fill="#1F1F40"/>
<path fill-rule="evenodd" clip-rule="evenodd" d="M386.313 163.778C383.59 162.479 380.239 162.125 377.556 163.725C376.953 164.093 376.168 163.883 375.815 163.292C375.461 162.689 375.657 161.902 376.246 161.547C379.558 159.553 384.075 159.763 387.452 161.495C388.08 161.81 388.329 162.584 388.015 163.214C387.701 163.843 386.941 164.093 386.313 163.778Z" fill="#1F1F40"/>
<path fill-rule="evenodd" clip-rule="evenodd" d="M348.089 137.168C344.227 137.168 336.753 139.005 336.753 146.734C336.753 154.462 335.287 160.603 330.365 160.603C330.365 160.603 330.365 163.279 330.365 166.665C330.365 170.05 330.038 173.488 326.843 173.488C326.843 166.192 324.631 163.319 324.631 163.319C324.631 163.319 324.631 153.557 324.631 145.028C324.631 136.499 327.027 125.031 338.193 117.172C352.645 106.99 372.791 106.99 387.256 117.172C398.435 125.031 400.817 136.499 400.817 145.028C400.817 153.557 400.817 163.319 400.817 163.319C400.817 163.319 398.605 166.192 398.605 173.488C395.411 173.488 395.084 170.063 395.084 166.665C395.084 163.266 395.084 160.603 395.084 160.603C390.162 160.603 388.695 154.475 388.695 146.734C388.695 139.005 381.221 137.168 377.359 137.168C367.607 137.168 357.855 137.168 348.089 137.168Z" fill="#555272"/>
<path fill-rule="evenodd" clip-rule="evenodd" d="M391.222 120.439C395.66 124.729 400.896 129.965 401.472 131.461C402.218 133.363 401.21 137.706 400.581 140.33C398.422 149.003 395.097 160.603 395.097 160.603C390.175 160.603 388.709 154.475 388.709 146.734C388.709 141 384.598 138.507 380.907 137.601L380.265 121.987L391.222 120.439Z" fill="#333258"/>
<path fill-rule="evenodd" clip-rule="evenodd" d="M334.24 120.439C329.802 124.729 324.566 129.965 323.99 131.461C323.244 133.363 324.252 137.706 324.88 140.33C327.04 149.003 330.365 160.603 330.365 160.603C335.287 160.603 336.753 154.475 336.753 146.734C336.753 141 340.863 138.507 344.555 137.601L345.196 121.987L334.24 120.439Z" fill="#333258"/>
<path fill-rule="evenodd" clip-rule="evenodd" d="M336.714 139.53C336.714 139.53 328.139 134.373 327.734 127.892C326.974 115.991 343.848 97.0831 359.386 104.615C394.246 88.9611 415.596 112.737 386.064 139.53C385.933 139.648 385.789 139.766 385.658 139.884C383.145 137.798 379.637 137.168 377.372 137.168C367.607 137.168 357.855 137.168 348.089 137.168C345.55 137.168 341.439 137.969 338.926 140.711C337.525 140.002 336.714 139.53 336.714 139.53Z" fill="#262649"/>
<path fill-rule="evenodd" clip-rule="evenodd" d="M329.697 130.791C329.854 131.014 329.815 131.329 329.606 131.487C329.396 131.657 329.108 131.618 328.951 131.395C328.938 131.369 322.864 123.22 330.116 112.527C330.273 112.304 330.561 112.251 330.771 112.422C330.98 112.579 331.032 112.894 330.875 113.117C324.042 123.207 329.684 130.778 329.697 130.791Z" fill="#262649"/>
<path fill-rule="evenodd" clip-rule="evenodd" d="M337.198 111.582C337.041 111.805 336.753 111.844 336.543 111.687C336.334 111.516 336.295 111.215 336.452 110.992C336.478 110.952 345.301 98.1197 354.857 97.9754C364.792 97.8179 362.384 108.722 362.371 108.748C362.318 109.01 362.057 109.181 361.808 109.128C361.559 109.063 361.402 108.8 361.454 108.538C361.454 108.512 363.601 98.8414 354.87 98.9857C345.772 99.1169 337.224 111.556 337.198 111.582Z" fill="#262649"/>
<path fill-rule="evenodd" clip-rule="evenodd" d="M374.61 101.439C374.374 101.544 374.1 101.426 373.995 101.177C373.89 100.928 374.008 100.626 374.244 100.521C374.27 100.508 382.687 96.6239 392.112 99.4712C394.638 100.232 396.811 101.557 398.487 103.289C399.992 104.851 401.092 106.74 401.655 108.84C402.218 110.939 402.231 113.261 401.589 115.663C400.896 118.287 399.403 121.029 396.942 123.719C396.759 123.916 396.471 123.916 396.275 123.732C396.091 123.535 396.078 123.22 396.262 123.024C398.592 120.465 400.019 117.867 400.673 115.387C401.262 113.17 401.249 111.044 400.725 109.115C400.215 107.186 399.207 105.441 397.806 103.998C396.249 102.384 394.206 101.138 391.837 100.429C382.752 97.6736 374.636 101.426 374.61 101.439Z" fill="#262649"/>
<path fill-rule="evenodd" clip-rule="evenodd" d="M331.399 116.043C331.818 115.374 332.263 114.718 332.747 114.075C347.147 125.687 380.737 118.182 372.346 100.429C377.307 99.4712 381.784 99.4187 385.619 100.127C393.316 116.161 352.723 139.911 331.399 116.043Z" fill="#333258"/>
<path fill-rule="evenodd" clip-rule="evenodd" d="M329.435 113.616C329.645 113.261 329.88 112.907 330.129 112.54C330.286 112.317 330.574 112.264 330.784 112.435C330.993 112.592 331.045 112.907 330.888 113.13C330.587 113.576 330.312 114.009 330.064 114.442C329.841 114.167 329.632 113.891 329.435 113.616Z" fill="#333258"/>
<path fill-rule="evenodd" clip-rule="evenodd" d="M374.61 101.439C374.374 101.544 374.1 101.426 373.995 101.177C373.89 100.928 374.008 100.626 374.244 100.521C374.257 100.508 378.642 98.4871 384.611 98.4215C384.847 98.7495 385.056 99.0776 385.253 99.4187C379.166 99.3269 374.623 101.426 374.61 101.439Z" fill="#333258"/>
<path fill-rule="evenodd" clip-rule="evenodd" d="M336.714 139.53C336.714 139.53 328.139 134.373 327.734 127.892C327.563 125.189 328.297 122.131 329.723 119.114C330.797 123.535 334.135 128.01 342.329 130.634C359.779 136.223 401.694 121.436 392.662 102.607C403.2 108.761 403.618 123.614 386.077 139.53C385.946 139.648 385.802 139.766 385.672 139.884C383.158 137.798 379.65 137.168 377.385 137.168C367.62 137.168 357.868 137.168 348.102 137.168C345.563 137.168 341.452 137.969 338.939 140.711C337.525 140.002 336.714 139.53 336.714 139.53Z" fill="#1F1F40"/>
<path fill-rule="evenodd" clip-rule="evenodd" d="M329.697 130.791C329.854 131.014 329.815 131.329 329.605 131.487C329.396 131.657 329.108 131.618 328.951 131.395C328.938 131.369 323.296 123.798 329.383 113.681C329.318 114.377 329.278 115.085 329.304 115.82C325.024 124.533 329.684 130.778 329.697 130.791Z" fill="#1F1F40"/>
<path fill-rule="evenodd" clip-rule="evenodd" d="M390.306 98.9988C390.895 99.13 391.497 99.2874 392.099 99.4711C394.625 100.232 396.798 101.557 398.474 103.289C399.979 104.851 401.079 106.74 401.642 108.84C402.205 110.939 402.218 113.261 401.576 115.663C400.883 118.287 399.39 121.029 396.929 123.719C396.746 123.916 396.458 123.916 396.262 123.732C396.078 123.535 396.065 123.22 396.249 123.024C398.579 120.465 400.006 117.867 400.66 115.387C401.249 113.17 401.236 111.044 400.712 109.115C400.202 107.186 399.194 105.441 397.793 103.998C396.236 102.384 394.193 101.138 391.824 100.429C391.628 100.377 391.444 100.324 391.248 100.272C390.986 99.8385 390.659 99.4187 390.306 98.9988Z" fill="#1F1F40"/>
<path fill-rule="evenodd" clip-rule="evenodd" d="M377.529 170.456C377.516 169.827 377.006 169.328 376.377 169.341C375.749 169.354 375.252 169.866 375.265 170.496C375.278 172.005 375.906 173.369 376.914 174.34C377.922 175.324 379.297 175.915 380.789 175.902C382.294 175.889 383.643 175.259 384.624 174.249C385.606 173.238 386.195 171.86 386.182 170.365C386.169 169.735 385.659 169.236 385.03 169.249C384.402 169.262 383.904 169.774 383.917 170.404C383.931 171.283 383.577 172.097 383.014 172.674C382.438 173.264 381.64 173.632 380.763 173.645C379.886 173.658 379.074 173.304 378.498 172.74C377.909 172.136 377.542 171.349 377.529 170.456Z" fill="#1F1F40"/>
<path fill-rule="evenodd" clip-rule="evenodd" d="M341.531 170.837C341.518 170.207 341.007 169.709 340.379 169.722C339.751 169.735 339.253 170.247 339.266 170.876C339.279 172.385 339.908 173.737 340.916 174.721C341.924 175.705 343.285 176.295 344.79 176.282C346.296 176.269 347.644 175.639 348.626 174.629C349.608 173.619 350.197 172.241 350.184 170.745C350.171 170.115 349.66 169.617 349.032 169.63C348.403 169.643 347.906 170.155 347.919 170.771C347.932 171.651 347.579 172.464 347.016 173.055C346.44 173.645 345.641 174.012 344.764 174.025C343.887 174.039 343.076 173.684 342.5 173.12C341.91 172.53 341.544 171.729 341.531 170.837Z" fill="#1F1F40"/>
<path fill-rule="evenodd" clip-rule="evenodd" d="M359.53 188.905C359.517 188.275 359.007 187.776 358.391 187.789C357.763 187.803 357.266 188.314 357.266 188.944C357.279 190.453 357.92 191.805 358.915 192.789C359.923 193.773 361.297 194.363 362.79 194.35C364.295 194.337 365.643 193.707 366.625 192.697C367.607 191.686 368.196 190.309 368.183 188.813C368.17 188.183 367.659 187.685 367.031 187.698C366.403 187.711 365.905 188.222 365.918 188.839C365.931 189.718 365.578 190.532 365.015 191.122C364.439 191.713 363.64 192.08 362.763 192.08C361.886 192.093 361.075 191.739 360.486 191.175C359.91 190.584 359.543 189.784 359.53 188.905Z" fill="#ED8068"/>
<path fill-rule="evenodd" clip-rule="evenodd" d="M410.779 291.302C410.779 291.302 449.487 366.775 461.151 369.675C472.827 372.574 503.498 354.231 529.024 338.486C529.378 335.35 523.631 323.501 520.555 323.344C511.038 327.359 471.662 344.653 468.926 344.626C466.649 344.613 449.055 298.283 438.845 270.492C433.883 256.977 426.644 240.917 414.902 235.787C414.902 235.8 396.471 240.497 410.779 291.302Z" fill="#333258"/>
<path fill-rule="evenodd" clip-rule="evenodd" d="M410.779 291.302C410.779 291.302 449.487 366.775 461.151 369.675C472.827 372.574 503.498 354.231 529.024 338.486C529.234 336.662 527.375 331.886 525.176 328.186C523.579 335.862 509.664 345.781 496.364 352.447C481.611 359.847 467.604 366.604 462.983 361.973C458.362 357.341 450.731 342.042 430.231 301.943C415.151 272.447 414.955 247.425 415.897 236.246C415.57 236.088 415.243 235.931 414.902 235.787C414.902 235.787 401.838 239.119 406.25 270.492C407.022 273.89 407.65 277.368 408.161 280.884C408.868 284.125 409.732 287.589 410.779 291.302Z" fill="#262649"/>
<path fill-rule="evenodd" clip-rule="evenodd" d="M198.466 338.407C179.341 326.611 167.508 318.266 166.617 317.702C164.536 316.39 165.047 313.687 167.115 313.647C169.183 313.608 176.448 316.337 177.194 316.757C177.941 317.177 177.914 316.429 177.914 316.429C174.93 306.706 183.438 303.452 185.729 303.085C188.02 302.704 189.853 303.584 189.957 304.83C190.062 306.077 188.347 306.759 188.347 306.759C183.006 307.861 182.156 312.755 184.551 315.721C186.947 318.673 191.659 319.854 194.814 316.416C197.982 312.978 195.023 309.108 193.858 308.005C192.693 306.903 191.515 305.722 192.536 304.436C193.57 303.151 194.866 304.108 194.866 304.108C206.53 310.866 201.909 320.379 201.909 320.379C201.909 320.379 201.071 323.646 203.859 325.181C204.134 325.338 204.854 325.653 205.902 326.099L198.466 338.407Z" fill="#F4AD85"/>
<path fill-rule="evenodd" clip-rule="evenodd" d="M314.015 291.302C314.015 291.302 275.307 366.775 263.643 369.675C251.98 372.574 221.296 354.231 195.77 338.486C195.416 335.35 201.163 323.501 204.239 323.344C213.756 327.359 253.132 344.653 255.867 344.626C258.145 344.613 275.739 298.283 285.949 270.492C290.91 256.977 298.149 240.917 309.891 235.787C309.905 235.8 328.336 240.497 314.015 291.302Z" fill="#333258"/>
<path fill-rule="evenodd" clip-rule="evenodd" d="M307.967 302.796C296.605 324.039 272.44 367.483 263.643 369.675C251.98 372.574 221.296 354.231 195.77 338.486C195.612 337.042 196.725 333.775 198.283 330.652C200.325 333.906 204.894 338.355 214.79 343.813C237.044 356.094 250.173 362.366 257.543 363.993C264.913 365.62 271.668 353.969 279.168 342.566C286.669 331.164 307.3 288.297 308.177 286.802C308.622 286.054 308.386 293.677 307.967 302.796Z" fill="#262649"/>
<path fill-rule="evenodd" clip-rule="evenodd" d="M540.583 317.413C547.822 307.795 557.339 298.361 557.705 302.652C558.085 306.943 548.751 315.537 544.392 319.67C540.059 323.829 540.583 317.413 540.583 317.413Z" fill="#F4AD85"/>
<path fill-rule="evenodd" clip-rule="evenodd" d="M542.115 318.043C552.43 309.396 565.18 301.537 564.512 306.3C563.831 311.076 551.5 318.069 545.714 321.481C539.929 324.892 542.115 318.043 542.115 318.043Z" fill="#F4AD85"/>
<path fill-rule="evenodd" clip-rule="evenodd" d="M546.421 308.202C546.238 307.861 546.042 307.546 545.832 307.244C543.607 304.082 539.811 302.704 538.331 302.429C535.779 301.956 533.684 302.849 533.54 304.213C533.396 305.578 535.294 306.365 535.294 306.365C541.251 307.73 542.075 313.083 539.3 316.232C538.528 317.111 537.559 317.833 536.499 318.332C536.774 318.292 537.062 318.227 537.389 318.161C540.138 317.649 549.354 312.926 546.421 308.202Z" fill="#F09373"/>
<path fill-rule="evenodd" clip-rule="evenodd" d="M546.67 319.801C546.251 321.638 545.518 323.659 543.947 325.758C551.33 321.533 556.802 318.358 558.556 317.387C562.902 314.986 564.761 314.028 565.075 312.65C564.735 312.27 564.224 312.02 563.583 311.994C561.737 311.915 553.189 315.209 549.34 316.783C548.346 317.19 547.678 317.479 547.495 317.571C547.285 317.676 547.141 317.702 547.024 317.689C546.945 318.371 546.84 319.08 546.67 319.801Z" fill="#F4AD85"/>
<path fill-rule="evenodd" clip-rule="evenodd" d="M183.425 317.61C176.186 307.992 166.67 298.558 166.303 302.849C165.924 307.139 175.257 315.734 179.616 319.867C183.962 324.013 183.425 317.61 183.425 317.61Z" fill="#F4AD85"/>
<path fill-rule="evenodd" clip-rule="evenodd" d="M181.907 318.24C171.592 309.593 158.842 301.734 159.509 306.496C160.19 311.273 172.521 318.266 178.307 321.678C184.093 325.076 181.907 318.24 181.907 318.24Z" fill="#F4AD85"/>
<path fill-rule="evenodd" clip-rule="evenodd" d="M177.6 308.386C177.783 308.045 177.98 307.73 178.189 307.428C180.415 304.266 184.211 302.888 185.69 302.613C188.243 302.14 190.337 303.033 190.481 304.397C190.625 305.749 188.74 306.549 188.74 306.549C182.771 307.914 181.959 313.267 184.734 316.416C185.507 317.295 186.462 318.017 187.536 318.515C187.261 318.476 186.973 318.41 186.646 318.345C183.884 317.833 174.668 313.123 177.6 308.386Z" fill="#F09373"/>
<path fill-rule="evenodd" clip-rule="evenodd" d="M177.351 319.998C177.77 321.835 178.503 323.856 180.074 325.955C172.691 321.743 167.219 318.555 165.465 317.584C161.119 315.183 159.261 314.225 158.946 312.847C159.287 312.467 159.797 312.217 160.439 312.191C162.284 312.112 170.832 315.406 174.681 316.98C175.676 317.387 176.343 317.676 176.527 317.768C176.736 317.873 176.88 317.899 176.998 317.886C177.077 318.555 177.181 319.263 177.351 319.998Z" fill="#F4AD85"/>
</svg>
